<?xml version="1.0" standalone="no"?>
<!DOCTYPE svg PUBLIC "-//W3C//DTD SVG 20010904//EN"
 "http://www.w3.org/TR/2001/REC-SVG-20010904/DTD/svg10.dtd">
<svg version="1.0" xmlns="http://www.w3.org/2000/svg"
 width="1080.000000pt" height="1080.000000pt" viewBox="0 0 1080.000000 1080.000000"
 preserveAspectRatio="xMidYMid meet">
<metadata>
Created by potrace 1.11, written by Peter Selinger 2001-2013
</metadata>
<g transform="translate(0.000000,1080.000000) scale(0.100000,-0.100000)"
fill="#000000" stroke="none">
<path d="M0 5400 l0 -5400 5400 0 5400 0 0 5400 0 5400 -5400 0 -5400 0 0
-5400z m3432 3290 c39 0 54 -5 78 -27 50 -47 57 -51 91 -67 48 -21 87 -59 95
-93 4 -15 18 -44 31 -63 14 -21 23 -49 23 -73 0 -23 8 -49 21 -66 29 -39 31
-161 3 -192 -13 -14 -19 -40 -22 -87 -4 -57 -9 -74 -38 -112 -60 -81 -153
-165 -214 -194 -19 -9 -46 -23 -60 -32 -20 -12 -59 -14 -206 -12 l-181 3 -55
47 c-30 26 -67 50 -81 53 -17 5 -28 16 -32 33 -3 15 -28 51 -55 81 -29 31 -50
63 -50 76 0 12 -10 35 -22 51 -21 26 -23 39 -23 164 0 131 1 136 28 175 15 22
27 47 27 56 0 9 9 28 20 42 11 14 20 34 20 45 0 20 81 102 101 102 11 0 56 33
91 67 23 22 126 33 257 27 57 -2 126 -4 153 -4z m3343 -1467 c30 -17 59 -23
118 -24 51 -1 89 -8 110 -19 18 -10 52 -21 77 -25 25 -4 59 -15 75 -25 17 -10
51 -21 77 -24 26 -4 57 -15 70 -25 13 -10 34 -22 47 -26 24 -7 92 -50 101 -64
3 -5 21 -16 40 -26 19 -10 46 -26 59 -36 13 -11 31 -19 40 -19 22 0 101 -70
256 -226 199 -202 263 -272 271 -296 4 -13 26 -46 50 -74 24 -28 44 -61 44
-72 0 -11 5 -24 10 -27 10 -6 90 -165 90 -180 0 -4 9 -19 20 -35 10 -15 22
-47 26 -71 3 -24 14 -55 23 -69 11 -15 20 -55 25 -98 4 -46 13 -83 25 -100 17
-24 20 -53 24 -257 3 -126 2 -323 -2 -436 -5 -172 -9 -208 -23 -222 -9 -9 -19
-40 -23 -69 -4 -29 -14 -61 -23 -70 -8 -10 -19 -41 -23 -70 -5 -29 -17 -64
-27 -78 -10 -14 -22 -47 -25 -74 -4 -27 -13 -57 -21 -65 -8 -9 -18 -29 -22
-46 -4 -16 -26 -52 -49 -80 -23 -27 -45 -61 -48 -75 -4 -14 -24 -43 -45 -66
-21 -22 -44 -54 -50 -70 -28 -66 -337 -376 -388 -388 -16 -4 -36 -14 -44 -22
-8 -7 -41 -38 -73 -69 -31 -30 -66 -55 -76 -55 -11 0 -33 -11 -49 -25 -17 -14
-39 -25 -51 -25 -11 0 -28 -9 -38 -19 -10 -11 -31 -23 -48 -27 -16 -4 -43 -15
-60 -24 -16 -10 -50 -21 -74 -24 -24 -4 -55 -16 -69 -26 -16 -13 -40 -20 -67
-20 -28 0 -51 -7 -69 -21 -21 -17 -47 -22 -145 -28 -92 -6 -125 -11 -147 -27
-26 -17 -47 -19 -214 -19 -172 0 -188 2 -220 21 -30 19 -53 22 -172 26 -123 3
-140 6 -167 26 -24 17 -44 22 -94 22 -52 0 -69 5 -97 25 -19 14 -41 25 -51 25
-9 0 -27 8 -40 19 -13 10 -41 24 -61 30 -21 7 -38 16 -38 20 0 4 -18 13 -41
20 -22 7 -48 21 -57 32 -9 10 -26 19 -39 19 -12 0 -49 23 -82 50 -33 28 -66
50 -74 50 -36 0 -406 373 -433 437 -8 18 -32 51 -54 75 -22 24 -40 50 -40 60
0 9 -20 41 -45 71 -25 31 -45 61 -45 66 0 13 -20 50 -37 69 -7 7 -13 22 -13
31 0 10 -9 30 -20 44 -11 14 -25 49 -30 78 -6 29 -18 61 -27 71 -11 12 -19 44
-23 96 -4 52 -12 86 -25 107 -19 28 -20 48 -20 456 0 406 1 428 19 448 14 15
21 43 25 94 4 49 13 83 29 108 12 20 22 52 22 71 0 20 9 46 20 61 11 14 20 29
20 33 0 8 56 131 71 154 5 8 17 31 26 50 10 19 37 58 60 87 24 28 43 57 43 65
0 19 30 56 135 166 50 51 97 108 105 125 9 19 30 39 53 50 20 9 66 45 101 80
75 74 116 107 132 107 7 0 39 23 72 50 33 28 66 50 73 50 8 0 32 12 54 25 22
14 47 25 56 25 9 0 24 9 34 20 10 11 37 22 64 25 25 4 58 15 73 26 15 11 44
19 65 19 21 0 56 10 78 21 23 13 72 25 114 30 40 5 81 15 90 23 25 22 53 24
381 22 294 -1 306 -2 345 -23z m-3094 -123 c19 -11 19 -42 19 -1889 0 -1735
-1 -1880 -17 -1892 -13 -11 -92 -15 -394 -17 -375 -3 -436 1 -450 28 -4 8 -17
34 -28 58 l-21 43 0 1772 c0 975 0 1787 0 1804 0 24 10 43 34 68 l34 35 402 0
c257 0 408 -4 421 -10z"/>
<path d="M6305 6360 c-25 -14 -66 -24 -110 -27 -42 -4 -80 -13 -95 -23 -14
-10 -36 -21 -50 -25 -14 -4 -36 -16 -49 -26 -13 -11 -31 -19 -41 -19 -10 0
-29 -9 -43 -20 -14 -12 -41 -26 -59 -32 -18 -6 -51 -28 -73 -49 -21 -21 -51
-41 -65 -44 -30 -7 -134 -110 -145 -145 -4 -14 -35 -54 -68 -90 -33 -36 -66
-81 -74 -100 -9 -19 -24 -45 -34 -59 -10 -13 -19 -32 -19 -43 0 -10 -9 -31
-20 -46 -12 -17 -23 -54 -29 -99 -5 -39 -16 -82 -25 -95 -13 -19 -16 -54 -16
-212 0 -167 2 -192 19 -220 10 -17 21 -51 25 -75 4 -24 16 -55 26 -69 11 -13
20 -32 20 -42 0 -10 9 -29 20 -43 11 -14 25 -49 30 -78 6 -29 20 -64 33 -78
12 -14 41 -45 65 -70 23 -25 42 -51 42 -57 0 -23 62 -88 100 -105 22 -10 43
-25 46 -34 3 -8 11 -15 18 -15 6 -1 31 -21 56 -45 24 -24 56 -47 71 -50 15 -3
35 -15 45 -26 9 -10 25 -19 34 -19 10 0 34 -11 54 -25 24 -16 52 -25 82 -27
29 -1 55 -9 72 -22 25 -20 38 -21 270 -21 185 0 245 3 251 13 10 16 66 32 116
32 27 0 53 9 77 25 20 14 44 25 54 25 9 0 43 23 76 50 33 28 68 50 77 50 10 0
27 10 38 23 11 12 69 70 129 128 125 122 154 155 154 174 0 7 11 27 25 43 14
17 25 39 25 50 0 10 9 30 19 44 11 13 23 38 27 54 4 16 15 40 24 54 10 15 20
56 24 99 5 50 14 83 27 99 16 22 19 42 19 155 0 113 -3 134 -21 163 -13 22
-22 59 -26 106 -4 47 -13 82 -25 98 -10 14 -21 48 -24 75 -4 28 -15 61 -26 74
-10 13 -18 30 -18 38 0 8 -22 42 -50 75 -27 33 -50 67 -50 75 0 20 -144 159
-190 183 -19 10 -50 33 -69 50 -19 18 -49 37 -65 43 -17 6 -45 21 -62 34 -17
12 -38 23 -46 23 -8 0 -27 9 -41 20 -14 11 -31 20 -39 20 -7 0 -33 11 -58 24
-33 17 -68 25 -134 29 -63 4 -94 11 -108 23 -13 13 -41 19 -101 22 -70 3 -88
0 -122 -18z"/>
</g>
</svg>
